<?xml version="1.0" encoding="iso-8859-1"?>
<!-- Generator: Adobe Illustrator 19.0.0, SVG Export Plug-In . SVG Version: 6.00 Build 0)  -->
<svg version="1.1" id="Layer_1" xmlns="http://www.w3.org/2000/svg" xmlns:xlink="http://www.w3.org/1999/xlink" x="0px" y="0px"
	 viewBox="0 0 512.16 512.16" style="enable-background:new 0 0 512.16 512.16;" xml:space="preserve">
<g>
	<g>
		<path d="M129.08,142.496c-30.144,0-54.672,24.96-54.672,55.648s24.528,55.648,54.672,55.648s54.656-24.96,54.656-55.648
			S159.224,142.496,129.08,142.496z M129.08,221.792c-12.496,0-22.672-10.608-22.672-23.648c0-13.04,10.176-23.648,22.672-23.648
			c12.496,0,22.656,10.608,22.656,23.648C151.736,211.184,141.592,221.792,129.08,221.792z"/>
	</g>
</g>
<g>
	<g>
		<path d="M256.072,142.496c-30.144,0-54.656,24.96-54.656,55.648s24.512,55.648,54.656,55.648c30.144,0,54.656-24.96,54.656-55.648
			S286.216,142.496,256.072,142.496z M256.072,221.792c-12.496,0-22.656-10.608-22.656-23.648c0-13.04,10.16-23.648,22.656-23.648
			c12.496,0,22.656,10.608,22.656,23.648C278.728,211.184,268.568,221.792,256.072,221.792z"/>
	</g>
</g>
<g>
	<g>
		<path d="M383.064,142.496c-30.144,0-54.656,24.96-54.656,55.648s24.512,55.648,54.656,55.648c30.144,0,54.672-24.96,54.672-55.648
			S413.192,142.496,383.064,142.496z M383.064,221.792c-12.496,0-22.656-10.608-22.656-23.648c0-13.04,10.16-23.648,22.656-23.648
			c12.496,0,22.672,10.608,22.672,23.648C405.736,211.184,395.56,221.792,383.064,221.792z"/>
	</g>
</g>
<g>
	<g>
		<path d="M459.144,0H53C23.8,0,0.072,24.16,0.072,53.856v273.008C0.072,356.56,23.8,380.72,53,380.72h188.128L401.32,512.16V380.72
			h57.84c29.184,0,52.928-24.16,52.928-53.856V53.856C512.072,24.16,488.344,0,459.144,0z M480.072,326.88
			c0,12.048-9.392,21.856-20.928,21.856h-89.84v95.776l-116.752-95.776H53c-11.536,0-20.928-9.808-20.928-21.856V53.856
			c0-12.048,9.392-21.872,20.928-21.872h406.16c11.52,0.016,20.912,9.824,20.912,21.872V326.88z"/>
	</g>
</g>
<g>
</g>
<g>
</g>
<g>
</g>
<g>
</g>
<g>
</g>
<g>
</g>
<g>
</g>
<g>
</g>
<g>
</g>
<g>
</g>
<g>
</g>
<g>
</g>
<g>
</g>
<g>
</g>
<g>
</g>
</svg>
